<?xml version="1.0" encoding="utf-8"?>
<svg xmlns="http://www.w3.org/2000/svg" width="43" height="44" viewBox="0 0 43 44" fill="none">
<g clip-path="url(#clip0_19395_59612)">
<path d="M37.575 41.8101V29.3732H34.9893V41.8101H37.575Z" fill="#0048B6"/>
<path d="M37.5766 40.1381V41.6569C37.5766 41.6965 37.5758 41.7377 37.5733 41.7765C37.5708 41.8169 37.5683 41.8564 37.5642 41.896C37.5617 41.9229 37.5583 41.9499 37.5542 41.976C37.555 41.976 37.555 41.9777 37.5542 41.9785C37.5517 41.9987 37.5483 42.0206 37.5442 42.0417C37.5408 42.0627 37.5375 42.0821 37.5333 42.1031C37.5292 42.1242 37.525 42.1444 37.5208 42.1646C37.4034 42.5384 37.2076 42.8752 36.9494 43.1564C36.4771 43.675 35.7982 43.9991 35.0426 43.9991H5.28881C5.10555 43.9949 4.91978 43.9975 4.71653 43.9991C4.59574 44 4.46995 44 4.33334 43.9991H2.54151C2.04587 43.9991 1.58354 43.8594 1.18952 43.6152V41.2393H0.00830078V40.1381C0.0216291 40.1507 0.168241 40.3544 0.179903 40.3696C0.382327 40.6163 0.791339 40.9968 1.23451 41.1652C1.63435 41.3176 1.99755 41.4279 2.58983 41.3824C2.62648 41.3807 2.66563 41.3774 2.70395 41.3732C3.75439 41.3757 3.26291 41.3917 4.11009 41.3841C4.19089 41.3841 4.2717 41.3757 4.3525 41.3732H33.2316C33.3124 41.3757 33.3932 41.3833 33.474 41.3841C34.322 41.3917 33.8289 41.3757 34.8793 41.3732C34.916 41.3765 34.9518 41.3799 34.986 41.3824C35.5832 41.4287 35.9473 41.3184 36.3488 41.1652C36.7928 40.9968 37.2026 40.6163 37.4042 40.3696C37.4159 40.3544 37.5625 40.1507 37.5766 40.1381Z" fill="url(#paint0_linear_19395_59612)"/>
<path d="M34.9818 18.8162V28.0707H37.5808V18.8162H34.9818Z" fill="url(#paint1_linear_19395_59612)"/>
<path d="M36.2755 15.9436L29.8004 22.4871L31.6381 24.3444L36.2805 19.6531L40.9221 24.3444L42.7605 22.4871L36.2846 15.9436L36.2805 15.9478L36.2755 15.9436Z" fill="#5F1EBE"/>
<path d="M2.59986 4.40491V5.34618C2.5932 4.99594 2.5982 4.90838 2.59986 4.40491Z" fill="url(#paint2_linear_19395_59612)"/>
<path d="M3.59281 43.8265C3.60781 43.8375 3.8094 43.9865 3.82273 44H2.54238C1.77933 44 1.09292 43.6682 0.618101 43.1387C0.615601 43.1361 0.613935 43.1336 0.612269 43.1311C0.272397 42.727 0.0541463 42.2176 0.00916322 41.6577H0.0083302C0.00249906 41.5853 0 41.5129 0 41.4397V39.6295C0.0174934 39.3037 0.0174934 38.9812 0 38.6638V5.35041C0.0174934 5.03216 0.0174934 4.7097 0 4.38388V2.57373C0 1.76127 0.364863 1.03553 0.93798 0.553946C1.0571 0.45965 1.18539 0.375457 1.32034 0.303893L1.32533 0.301367C1.61023 0.14982 1.92594 0.0504726 2.25998 0.0151116C2.26248 0.0151116 2.26498 0.0142697 2.26748 0.0142697C2.28414 0.0134277 2.3008 0.0134277 2.31829 0.0134277H3.82189C3.8094 0.0277405 3.60697 0.17592 3.59198 0.186865C3.34791 0.390611 2.97138 0.805682 2.80478 1.25359C2.654 1.65603 2.54571 2.02227 2.58986 2.61751L2.59652 2.50048C2.59819 2.53837 2.59569 2.69665 2.59985 2.73791C2.59736 3.79958 2.59819 3.17318 2.59985 4.13635C2.59985 4.21802 2.59902 4.29463 2.59985 4.40324V39.6093C2.59736 39.691 2.58986 39.7726 2.58903 39.8543C2.58153 40.7105 2.59736 40.213 2.59985 41.2746C2.59652 41.3108 2.59319 41.3479 2.59069 41.3824C2.54571 41.9852 2.654 42.354 2.80561 42.759C2.97221 43.2069 3.34874 43.6219 3.59281 43.8257V43.8265Z" fill="url(#paint3_linear_19395_59612)"/>
<path d="M37.5883 6.6917V15.7997L36.2888 14.5671L34.9885 15.798V2.46606H37.5875V6.6917H37.5883Z" fill="url(#paint4_linear_19395_59612)"/>
<path d="M25.9144 20.7434H11.6931V23.3492H25.9144V20.7434Z" fill="#3C91FF"/>
<path d="M20.0816 29.2334V14.86H17.5034V29.2334H20.0816Z" fill="#3C91FF"/>
<path d="M37.5334 1.83443C37.3734 1.32085 37.0619 0.875471 36.6512 0.553012C36.5321 0.458716 36.4038 0.374523 36.2688 0.302959L36.2638 0.300434C35.979 0.148887 35.6641 0.0495391 35.3292 0.0141781C35.3267 0.0141781 35.3242 0.0133362 35.3217 0.0133362C35.2351 0.00491693 35.1451 -0.000976562 35.056 -0.000976562H2.53321C2.44408 -0.000976562 2.35411 0.00407501 2.26748 0.0133362C2.26498 0.0133362 2.26248 0.0141781 2.25998 0.0141781C1.92594 0.0486972 1.61023 0.148887 1.32533 0.300434L1.32034 0.302959C1.18539 0.375365 1.0571 0.458716 0.93798 0.553012C0.527301 0.875471 0.215752 1.32169 0.0558123 1.83443C0.0191595 1.99776 0 2.16783 0 2.34295V3.86179C0 3.86179 0.0141613 3.84495 0.0283227 3.82559C0.0749718 3.76413 0.162439 3.6412 0.171602 3.6311C0.374026 3.38357 0.783038 3.00386 1.2262 2.83548C1.62772 2.68225 1.99175 2.5728 2.58986 2.61826C2.59902 2.6191 2.60902 2.61995 2.61818 2.62079C2.62734 2.62163 2.64984 2.62331 2.69565 2.62752H34.8935C34.9393 2.62331 34.961 2.62163 34.971 2.62079C34.9802 2.61995 34.9902 2.6191 34.9993 2.61826C35.5966 2.5728 35.9615 2.68225 36.363 2.83548C36.807 3.00386 37.216 3.38357 37.4176 3.6311C37.4267 3.6412 37.515 3.76413 37.5609 3.82559C37.5758 3.84579 37.5858 3.85842 37.5892 3.86179V2.34295C37.5892 2.16867 37.57 1.99776 37.5334 1.83443Z" fill="#3C91FF"/>
</g>
<defs>
<linearGradient id="paint0_linear_19395_59612" x1="0.00830078" y1="42.0686" x2="37.5766" y2="42.0686" gradientUnits="userSpaceOnUse">
<stop offset="0.02" stop-color="#0048B6"/>
<stop offset="0.53" stop-color="#3C91FF"/>
</linearGradient>
<linearGradient id="paint1_linear_19395_59612" x1="36.2813" y1="28.0698" x2="36.2813" y2="18.8154" gradientUnits="userSpaceOnUse">
<stop stop-color="#5F1EBE"/>
<stop offset="0.23" stop-color="#5C1DB8"/>
<stop offset="0.54" stop-color="#531AA7"/>
<stop offset="0.88" stop-color="#46158C"/>
<stop offset="1" stop-color="#411482"/>
</linearGradient>
<linearGradient id="paint2_linear_19395_59612" x1="2.59653" y1="4.87555" x2="2.59986" y2="4.87555" gradientUnits="userSpaceOnUse">
<stop offset="0.02" stop-color="#0048B6"/>
<stop offset="0.44" stop-color="#3C91FF"/>
</linearGradient>
<linearGradient id="paint3_linear_19395_59612" x1="1.81182" y1="2.55942" x2="2.10198" y2="54.6663" gradientUnits="userSpaceOnUse">
<stop offset="0.02" stop-color="#0048B6"/>
<stop offset="0.35" stop-color="#3C91FF"/>
<stop offset="0.41" stop-color="#3386F4"/>
<stop offset="0.48" stop-color="#3C91FF"/>
<stop offset="0.6" stop-color="#3C91FF"/>
</linearGradient>
<linearGradient id="paint4_linear_19395_59612" x1="36.3355" y1="19.3737" x2="36.2572" y2="2.76159" gradientUnits="userSpaceOnUse">
<stop offset="0.5" stop-color="#3A8FFF"/>
<stop offset="0.68" stop-color="#2070DF"/>
<stop offset="0.92" stop-color="#0048B6"/>
</linearGradient>
<clipPath id="clip0_19395_59612">
<rect width="42.7606" height="44" fill="white"/>
</clipPath>
</defs>
</svg>