<?xml version="1.0" encoding="utf-8"?>
<svg xmlns="http://www.w3.org/2000/svg" width="32" height="44" viewBox="0 0 32 44" fill="none">
<g clip-path="url(#clip0_19599_58704)">
<path d="M22.5923 42.655L21.1153 44H21.0371L16.4176 38.9457L10.8682 44H10.7338L9.40771 42.5502L16.5506 36.0448H16.5513L22.5923 42.655Z" fill="url(#paint0_linear_19599_58704)"/>
<path d="M17.0834 30.6654V22.3091H14.9166V30.6654H17.0834Z" fill="#0048B6"/>
<path d="M14.9118 13.3312V20.99H17.0896V13.3312H14.9118Z" fill="url(#paint1_linear_19599_58704)"/>
<path d="M15.9966 10.954L10.5707 16.3697L12.1101 17.9064L16 14.0239L19.89 17.9064L21.4293 16.3697L16.0034 10.954L16 10.9574L15.9966 10.954Z" fill="#5F1EBE"/>
<path d="M10.8717 44H9.46261C9.46261 44 9.43655 43.9966 9.3913 43.9863C9.37827 43.985 9.36524 43.9836 9.35221 43.9815C9.35153 43.9815 9.35084 43.9815 9.35015 43.9815C9.33301 43.9795 9.31518 43.9768 9.29736 43.974C9.28021 43.9706 9.26376 43.9679 9.24661 43.9644C9.22947 43.961 9.21233 43.9569 9.19519 43.9535C9.01554 43.8967 8.84617 43.8173 8.69052 43.7187C8.44229 43.5763 8.18927 43.3676 8.02402 43.063V43.0616C8.02402 43.0616 8.02128 43.0588 8.02059 43.0575C8.01579 43.0499 8.00345 43.0301 7.98699 43.0013C7.8382 42.757 7.73809 42.4804 7.69626 42.1847C7.68872 42.1409 7.68049 42.0971 7.67432 42.0506V40.7897H7.675V29.1971C8.10425 29.4915 8.97782 30.0582 9.85208 30.4272V41.7446C9.85208 41.7446 9.80203 42.3641 9.99265 42.8247C9.99265 42.8247 10.1737 43.4182 10.7298 43.8898C10.7826 43.9288 10.8463 43.9754 10.8717 44Z" fill="url(#paint2_linear_19599_58704)"/>
<path d="M24.2537 40.7898V42.0506C24.2469 42.0972 24.2393 42.141 24.2311 42.1848C24.1893 42.4805 24.0892 42.757 23.941 43.0014C23.9246 43.0301 23.9122 43.05 23.9068 43.0575C23.9061 43.0589 23.9047 43.0596 23.904 43.0616V43.063C23.7388 43.3676 23.4857 43.5764 23.2375 43.7187C23.0819 43.8173 22.9125 43.8967 22.7322 43.9535C22.715 43.9569 22.6986 43.961 22.6814 43.9645C22.6636 43.9679 22.6471 43.9706 22.63 43.974C22.6129 43.9768 22.595 43.9795 22.5772 43.9816C22.5765 43.9816 22.5758 43.9816 22.5751 43.9816C22.5621 43.9836 22.5491 43.985 22.5367 43.9864C22.4908 43.9966 22.4654 44.0001 22.4654 44.0001H21.0481C21.055 43.9925 21.1441 43.9296 21.1983 43.8899C21.7544 43.4182 21.9347 42.8248 21.9347 42.8248C22.126 42.3641 22.0753 41.7446 22.0753 41.7446V30.5121C22.5573 30.2869 23.734 29.7769 24.253 29.3615V40.7891H24.2537V40.7898Z" fill="url(#paint3_linear_19599_58704)"/>
<path d="M16 31.944C11.7261 31.944 7.70858 30.2827 4.68604 27.2662C1.66418 24.2489 0 20.2385 0 15.972C0 11.7055 1.66418 7.69509 4.68604 4.67784C7.70858 1.66127 11.7261 0 16 0C20.2739 0 24.2914 1.66127 27.314 4.67784C30.3358 7.6944 32 11.7055 32 15.972C32 20.2385 30.3358 24.2489 27.314 27.2662C24.2921 30.2827 20.2739 31.944 16 31.944ZM16 2.16848C8.37508 2.16848 2.17228 8.36042 2.17228 15.972C2.17228 23.5836 8.37508 29.7755 16 29.7755C23.6249 29.7755 29.8277 23.5836 29.8277 15.972C29.8277 8.36042 23.6249 2.16848 16 2.16848Z" fill="#3C91FF"/>
</g>
<defs>
<linearGradient id="paint0_linear_19599_58704" x1="8.91744" y1="40.0224" x2="24.0816" y2="40.0224" gradientUnits="userSpaceOnUse">
<stop offset="0.04" stop-color="#0048B6"/>
<stop offset="0.2" stop-color="#3C91FF"/>
<stop offset="0.67" stop-color="#3C91FF"/>
<stop offset="0.93" stop-color="#054EBC"/>
</linearGradient>
<linearGradient id="paint1_linear_19599_58704" x1="16" y1="20.99" x2="16" y2="13.3312" gradientUnits="userSpaceOnUse">
<stop stop-color="#5F1EBE"/>
<stop offset="0.23" stop-color="#5C1DB8"/>
<stop offset="0.54" stop-color="#531AA7"/>
<stop offset="0.88" stop-color="#46158C"/>
<stop offset="1" stop-color="#411482"/>
</linearGradient>
<linearGradient id="paint2_linear_19599_58704" x1="9.19999" y1="30.0767" x2="9.29907" y2="47.8168" gradientUnits="userSpaceOnUse">
<stop offset="0.02" stop-color="#0048B6"/>
<stop offset="0.38" stop-color="#3C91FF"/>
</linearGradient>
<linearGradient id="paint3_linear_19599_58704" x1="22.6108" y1="29.6373" x2="22.7092" y2="47.1474" gradientUnits="userSpaceOnUse">
<stop offset="0.02" stop-color="#0048B6"/>
<stop offset="0.38" stop-color="#3C91FF"/>
</linearGradient>
<clipPath id="clip0_19599_58704">
<rect width="32" height="44" fill="white"/>
</clipPath>
</defs>
</svg>